<?xml version="1.0" encoding="UTF-8"?>
<svg width="88px" height="95px" viewBox="0 0 88 95" version="1.1" xmlns="http://www.w3.org/2000/svg" xmlns:xlink="http://www.w3.org/1999/xlink">
    <!-- Generator: sketchtool 41.1 (35376) - http://www.bohemiancoding.com/sketch -->
    <title>0720EA63-A3EB-43CA-9D5C-D7A80FDE20CE</title>
    <desc>Created with sketchtool.</desc>
    <defs></defs>
    <g id="Page-1" stroke="none" stroke-width="1" fill="none" fill-rule="evenodd">
        <g id="landing-v5" transform="translate(-175.000000, -3174.000000)" fill="#FFFFFF">
            <g id="package" transform="translate(175.000000, 3174.000000)">
                <g id="Capa_1">
                    <path d="M87.9597254,22.3871308 C87.9597254,22.0263713 87.8791762,21.6656118 87.7180778,21.3248945 C87.395881,20.6434599 86.7716247,20.1824895 86.0869565,20.0421941 L45.0672769,0.240506329 C44.402746,-0.0801687764 43.6173913,-0.0801687764 42.9528604,0.240506329 L1.53043478,20.2225738 C0.724942792,20.6033755 0.201372998,21.4050633 0.161098398,22.306962 L0.161098398,22.3270042 L0.161098398,22.407173 L0.161098398,72.5527426 C0.161098398,73.4746835 0.684668192,74.3164557 1.53043478,74.7172996 L42.9528604,94.6993671 C42.9729977,94.6993671 42.9729977,94.6993671 42.993135,94.7194093 C43.0535469,94.7394515 43.1139588,94.7594937 43.1743707,94.7995781 C43.194508,94.7995781 43.2146453,94.8196203 43.2549199,94.8196203 C43.3153318,94.8396624 43.3757437,94.8597046 43.4361556,94.8797468 C43.4562929,94.8797468 43.4764302,94.899789 43.4965675,94.899789 C43.5569794,94.9198312 43.6375286,94.9198312 43.6979405,94.9398734 L43.7583524,94.9398734 C43.8389016,94.9398734 43.9395881,94.9599156 44.0201373,94.9599156 C44.1006865,94.9599156 44.201373,94.9599156 44.2819222,94.9398734 L44.3423341,94.9398734 C44.402746,94.9398734 44.4832952,94.9198312 44.5437071,94.899789 C44.5638444,94.899789 44.5839817,94.8797468 44.604119,94.8797468 C44.6645309,94.8597046 44.7249428,94.8396624 44.7853547,94.8196203 C44.805492,94.8196203 44.8256293,94.7995781 44.8659039,94.7995781 C44.9263158,94.7795359 44.9867277,94.7594937 45.0471396,94.7194093 C45.0672769,94.7194093 45.0672769,94.7194093 45.0874142,94.6993671 L86.6306636,74.657173 C87.4562929,74.2563291 88,73.414557 88,72.492616 L88,22.4472574 C87.9597254,22.4272152 87.9597254,22.407173 87.9597254,22.3871308 Z M44,5.07067511 L79.9249428,22.407173 L66.6947368,28.8006329 L30.7697941,11.464135 L44,5.07067511 Z M44,39.7436709 L8.07505721,22.407173 L25.2320366,14.1297468 L61.1569794,31.4662447 L44,39.7436709 Z M4.99405034,26.2753165 L41.583524,43.9324895 L41.583524,88.6867089 L4.99405034,71.0295359 L4.99405034,26.2753165 Z M46.416476,88.6867089 L46.416476,43.9324895 L63.5935927,35.6350211 L63.5935927,47.3396624 C63.5935927,48.6624473 64.6810069,49.7447257 66.0100686,49.7447257 C67.3391304,49.7447257 68.4265446,48.6624473 68.4265446,47.3396624 L68.4265446,33.2900844 L83.1267735,26.1951477 L83.1267735,70.9493671 L46.416476,88.6867089 Z" id="Shape"></path>
                </g>
            </g>
        </g>
    </g>
</svg>